<svg width="24" height="24" viewBox="0 0 24 24" fill="none" xmlns="http://www.w3.org/2000/svg">
<path id="Facebook" d="M12 0.593262C5.37903 0.593262 0 5.67744 0 11.9355C0 17.6164 4.4332 22.3179 10.207 23.1377L10.8335 23.2273V14.2897H7.99858V12.4752H10.8335V10.0656C10.8335 8.58176 11.2102 7.6045 11.8338 6.99138C12.4574 6.37825 13.3789 6.06902 14.6612 6.06902C15.6866 6.06902 16.0855 6.12774 16.4648 6.17172V7.65696H15.13C14.3726 7.65696 13.7512 8.05638 13.4286 8.58839C13.1061 9.12039 13.0057 9.7556 13.0057 10.4029V12.4742H16.3455L16.0483 14.2887H13.0057V23.2414L13.6246 23.1619C19.4805 22.4112 24 17.672 24 11.9355C24 5.67744 18.621 0.593262 12 0.593262ZM12 1.62437C18.0314 1.62437 22.9091 6.23469 22.9091 11.9355C22.9091 16.9517 19.1104 21.0772 14.0966 22.0059V15.3198H16.9837L17.6175 11.4431H14.0966V10.4029C14.0966 9.86802 14.2001 9.38878 14.3746 9.10092C14.5492 8.81307 14.7174 8.68807 15.13 8.68807H17.5558V5.23829L17.0827 5.17787C16.7556 5.13603 16.0087 5.03791 14.6612 5.03791C13.1868 5.03791 11.9212 5.41754 11.0476 6.27645C10.174 7.13535 9.74254 8.41429 9.74254 10.0656V11.4441H6.90767V15.3208H9.74254V21.9737C4.80927 20.9859 1.09091 16.8974 1.09091 11.9355C1.09091 6.23469 5.9686 1.62437 12 1.62437Z" fill="#FAFAFA"/>
</svg>
