<svg width="24" height="25" viewBox="0 0 24 25" fill="none" xmlns="http://www.w3.org/2000/svg">
<path id="Github" d="M12 0.592773C5.37983 0.592773 0 5.97505 0 12.5982C0 19.2214 5.37983 24.6037 12 24.6037C18.6202 24.6037 24 19.2214 24 12.5982C24 5.97505 18.6202 0.592773 12 0.592773ZM12 1.63673C18.056 1.63673 22.9565 6.53948 22.9565 12.5982C22.9565 12.6355 22.9538 12.6722 22.9535 12.7094C22.6198 12.6785 22.2342 12.6493 21.7439 12.6319C21.0506 12.6073 20.1768 12.6144 19.1861 12.6635C19.2229 12.4075 19.2486 12.148 19.2493 11.8815C19.2998 10.9041 18.9717 9.98963 18.4382 9.18194C18.5671 8.73631 18.7183 8.16937 18.7561 7.52629C18.7992 6.79329 18.736 5.98049 18.1478 5.43125L17.9969 5.29056H17.7911C16.3912 5.29056 15.4331 5.87685 14.8471 6.34165C14.0011 6.01403 13.0499 5.81254 12 5.81254C10.9442 5.81254 9.98375 6.01685 9.10292 6.34369C8.51734 5.87867 7.55832 5.29056 6.15693 5.29056H5.95211L5.80129 5.43023C5.22832 5.96251 5.17554 6.75301 5.21128 7.48245C5.2428 8.12568 5.38525 8.71062 5.51189 9.17786C4.9693 10.0013 4.64368 10.9394 4.64368 11.8673C4.64368 12.1343 4.66851 12.3947 4.70482 12.6512C3.76269 12.6075 2.92283 12.5991 2.25611 12.6227C1.76583 12.64 1.38023 12.6691 1.04654 12.7002C1.04622 12.6661 1.04348 12.6324 1.04348 12.5982C1.04348 6.53948 5.944 1.63673 12 1.63673ZM6.46773 6.40282C7.52038 6.50261 8.31234 6.97288 8.67901 7.29895L8.92357 7.51508L9.2252 7.39172C10.0503 7.05182 10.9706 6.85649 12 6.85649C13.0294 6.85649 13.9499 7.05279 14.7126 7.38662L15.0183 7.52119L15.268 7.29895C15.6348 6.97276 16.4281 6.50236 17.4813 6.40282C17.6214 6.63509 17.743 6.96541 17.7137 7.46512C17.6785 8.06316 17.5186 8.71455 17.3978 9.1014L17.3193 9.35321L17.4752 9.56628C17.9915 10.2706 18.2547 11.0328 18.2099 11.8387L18.2089 11.853V11.8673C18.2089 13.1698 17.7401 14.2124 16.7415 14.9848C15.743 15.7573 14.1666 16.2521 11.948 16.2521C9.72945 16.2521 8.15208 15.7573 7.15353 14.9848C6.15498 14.2124 5.68716 13.1698 5.68716 11.8673C5.68716 11.1027 5.96312 10.2617 6.47283 9.56628L6.62568 9.35831L6.55231 9.11057C6.43141 8.69932 6.28321 8.03308 6.25374 7.43148C6.22922 6.9311 6.34759 6.61483 6.46773 6.40282ZM3.59205 13.1314C3.96076 13.1361 4.38337 13.156 4.80673 13.1773C4.84717 13.34 4.8933 13.5002 4.94939 13.6565C3.22381 13.6929 1.9329 13.8665 1.13723 14.0153C1.10359 13.7541 1.07679 13.4908 1.06182 13.2242C1.64985 13.1684 2.47878 13.1172 3.59205 13.1314ZM20.4079 13.1396C21.5204 13.1254 22.3491 13.1767 22.9372 13.2323C22.9222 13.4952 22.8959 13.7548 22.8628 14.0123C22.0387 13.861 20.7129 13.6874 18.9426 13.6595C18.9975 13.5063 19.0433 13.3489 19.0832 13.1895C19.5502 13.1645 20.0059 13.1447 20.4079 13.1396ZM5.17154 14.1744C5.48288 14.7985 5.92775 15.3558 6.51562 15.8106C7.31939 16.4324 8.36433 16.8669 9.63995 17.0993C9.47306 17.2708 9.32128 17.4592 9.18648 17.6579L9.15489 17.6304C9.15776 17.6271 8.89552 17.7584 8.50374 17.7935C8.11195 17.8286 7.62867 17.818 7.20041 17.818C6.56128 17.818 6.27976 17.5159 5.82982 16.9657C5.58067 16.6297 5.27692 16.3577 4.982 16.1511C4.68001 15.9396 4.4224 15.7904 4.1036 15.7372L4.0608 15.7301H4.01698C3.77351 15.7301 3.5379 15.7477 3.31793 15.9992C3.20795 16.125 3.13214 16.3578 3.18139 16.5549C3.23063 16.7519 3.35523 16.873 3.46671 16.9474C4.17978 17.423 4.30581 18.3642 4.75272 19.2014C5.17007 20.0334 6.07078 20.4279 6.99151 20.4279H8.34783V22.9348C4.67886 21.6391 1.91201 18.4468 1.21671 14.5312C2.01544 14.3807 3.35298 14.1997 5.17154 14.1744ZM18.7215 14.1784C20.5803 14.1943 21.9553 14.3751 22.7843 14.5281C22.0899 18.4451 19.3221 21.6388 15.6522 22.9348V20.2189C15.6522 19.3918 15.3807 18.4797 14.9083 17.7191C14.7649 17.4882 14.5961 17.2698 14.4079 17.0738C15.6159 16.835 16.6082 16.408 17.3804 15.8106C17.967 15.3568 18.4109 14.8012 18.7215 14.1784ZM11.3213 17.348H12.7826C13.2067 17.348 13.6594 17.6861 14.0217 18.2696C14.3841 18.8531 14.6087 19.6367 14.6087 20.2189V23.2457C13.7726 23.4497 12.8994 23.5597 12 23.5597C11.1006 23.5597 10.2274 23.4497 9.3913 23.2457V20.2189C9.3913 19.6495 9.63539 18.8678 10.0221 18.2819C10.4088 17.6959 10.8973 17.348 11.3213 17.348ZM5.3784 17.9648C5.8301 18.4335 6.37697 18.8619 7.20041 18.8619C7.60693 18.8619 8.11434 18.8766 8.59647 18.8334C8.59818 18.8332 8.59985 18.8325 8.60156 18.8324C8.53804 19.0151 8.49065 19.1989 8.45075 19.3839H6.99151C6.34803 19.3839 5.89345 19.1513 5.6841 18.7325L5.68003 18.7253L5.67697 18.7192C5.5912 18.5598 5.4786 18.2411 5.3784 17.9648Z" fill="#FAFAFA"/>
</svg>
