<svg width="24" height="25" viewBox="0 0 24 25" fill="none" xmlns="http://www.w3.org/2000/svg">
<path id="Instagram" d="M7.09091 0.592773C3.18135 0.592773 0 3.77557 0 7.68691V17.5096C0 21.4209 3.18135 24.6037 7.09091 24.6037H16.9091C20.8186 24.6037 24 21.4209 24 17.5096V7.68691C24 3.77557 20.8186 0.592773 16.9091 0.592773H7.09091ZM7.09091 1.68418H16.9091C20.229 1.68418 22.9091 4.3655 22.9091 7.68691V17.5096C22.9091 20.831 20.229 23.5123 16.9091 23.5123H7.09091C3.77101 23.5123 1.09091 20.831 1.09091 17.5096V7.68691C1.09091 4.3655 3.77101 1.68418 7.09091 1.68418ZM18.5455 4.95839C18.2561 4.95839 17.9787 5.07338 17.7741 5.27806C17.5695 5.48274 17.4545 5.76034 17.4545 6.0498C17.4545 6.33926 17.5695 6.61686 17.7741 6.82154C17.9787 7.02622 18.2561 7.1412 18.5455 7.1412C18.8348 7.1412 19.1123 7.02622 19.3168 6.82154C19.5214 6.61686 19.6364 6.33926 19.6364 6.0498C19.6364 5.76034 19.5214 5.48274 19.3168 5.27806C19.1123 5.07338 18.8348 4.95839 18.5455 4.95839ZM12 6.5955C8.69275 6.5955 6 9.28948 6 12.5982C6 15.907 8.69275 18.601 12 18.601C15.3072 18.601 18 15.907 18 12.5982C18 9.28948 15.3072 6.5955 12 6.5955ZM12 7.68691C14.7177 7.68691 16.9091 9.87932 16.9091 12.5982C16.9091 15.3171 14.7177 17.5096 12 17.5096C9.28232 17.5096 7.09091 15.3171 7.09091 12.5982C7.09091 9.87932 9.28232 7.68691 12 7.68691Z" fill="#FAFAFA"/>
</svg>
